<?xml version="1.0" encoding="UTF-8" standalone="no"?><!-- Generator: Gravit.io --><svg xmlns="http://www.w3.org/2000/svg" xmlns:xlink="http://www.w3.org/1999/xlink" style="isolation:isolate" viewBox="0 0 869.162 157.958" width="869.162pt" height="157.958pt"><g><g><g><path d=" M 225.441 109.809 L 200.932 109.809 C 198.002 109.809 195.309 107.75 194.597 104.978 L 180.422 51.922 L 160.308 152.808 C 159.761 155.855 157.067 158.043 153.973 157.955 C 151.043 157.955 148.351 155.896 147.638 152.966 L 131.246 86.527 L 121.506 106.245 C 120.318 108.463 118.101 109.967 115.646 109.967 L 99.171 109.967 L 99.171 109.967 L 99.172 109.971 L 99.172 109.971 L 87.042 109.971 Q 83.042 109.971 79.042 109.971 L 29.989 109.971 C 27.782 109.971 25.28 111.617 24.406 113.644 L 15.587 134.104 C 14.713 136.132 12.211 137.778 10.004 137.778 L 5.383 137.778 C 0.968 137.778 -1.158 134.503 0.638 130.47 L 45.936 28.765 C 46.835 26.749 49.356 25.111 51.564 25.111 L 57.307 25.111 C 59.515 25.111 62.038 26.748 62.937 28.764 L 91.746 93.327 C 92.645 95.343 95.168 96.98 97.376 96.98 L 111.528 96.98 L 127.287 64.83 C 128.316 62.613 130.692 61.108 133.147 61.108 L 133.859 61.108 C 136.472 61.425 138.848 63.325 139.482 65.938 L 153.181 121.766 L 173.374 22.147 C 173.929 19.217 176.463 17 179.551 17 L 179.868 17 C 182.639 17 185.332 19.059 186.044 21.831 L 205.921 96.822 L 225.441 96.822 C 227.649 96.822 229.441 95.03 229.441 92.822 L 229.441 46.302 C 229.441 44.094 231.234 42.302 233.441 42.302 L 276.106 42.302 L 276.106 42.302 Q 294.005 42.302 303.913 51.092 L 303.913 51.092 L 303.913 51.092 Q 313.821 59.881 313.821 76.022 L 313.821 76.022 L 313.821 76.022 Q 313.821 92.003 303.913 100.952 L 303.913 100.952 L 303.913 100.952 Q 294.005 109.902 276.106 109.902 L 276.106 109.902 L 249.902 109.902 C 247.694 109.902 245.902 111.694 245.902 113.902 L 245.902 150.968 C 245.902 153.176 244.109 154.968 241.902 154.968 L 233.441 154.968 C 231.234 154.968 229.441 153.176 229.441 150.968 L 229.441 150.968 L 229.441 113.809 C 229.441 111.601 227.649 109.809 225.441 109.809 Z  M 51.428 50.836 L 34.75 89.52 C 33.002 93.574 35.167 96.866 39.583 96.866 L 69.448 96.866 C 73.864 96.866 76.037 93.571 74.3 89.512 L 57.744 50.844 C 56.006 46.785 53.176 46.781 51.428 50.836 L 51.428 50.836 L 51.428 50.836 Z  M 249.902 96.637 L 274.348 96.637 L 274.348 96.637 Q 298 96.637 298 76.022 L 298 76.022 L 298 76.022 Q 298 55.566 274.348 55.566 L 274.348 55.566 L 249.902 55.566 C 247.694 55.566 245.902 57.359 245.902 59.566 L 245.902 92.637 C 245.902 94.845 247.694 96.637 249.902 96.637 L 249.902 96.637 Z " fill-rule="evenodd" fill="rgb(116,208,241)"/><path d=" M 400.753 154.968 L 337.638 154.968 C 335.43 154.968 333.638 153.176 333.638 150.968 L 333.638 46.302 C 333.638 44.094 335.43 42.302 337.638 42.302 L 346.098 42.302 C 348.306 42.302 350.098 44.094 350.098 46.302 L 350.098 137.225 C 350.098 139.432 351.89 141.225 354.098 141.225 L 400.753 141.225 C 402.961 141.225 404.753 143.017 404.753 145.225 L 404.753 150.968 C 404.753 153.176 402.961 154.968 400.753 154.968 Z " fill="rgb(116,208,241)"/><path d=" M 433.514 154.968 L 425.054 154.968 C 422.846 154.968 421.054 153.176 421.054 150.968 L 421.054 46.302 C 421.054 44.094 422.846 42.302 425.054 42.302 L 433.514 42.302 C 435.722 42.302 437.514 44.094 437.514 46.302 L 437.514 150.968 C 437.514 153.176 435.722 154.968 433.514 154.968 Z " fill="rgb(116,208,241)"/><path d=" M 503.192 154.968 L 494.571 154.968 C 492.364 154.968 490.571 153.176 490.571 150.968 L 490.571 56.046 L 456.537 56.046 C 454.329 56.046 452.537 54.253 452.537 52.046 L 452.537 46.302 C 452.537 44.094 454.329 42.302 456.537 42.302 L 541.386 42.302 C 543.594 42.302 545.386 44.094 545.386 46.302 L 545.386 52.046 C 545.386 54.253 543.594 56.046 541.386 56.046 L 507.192 56.046 L 507.192 150.968 C 507.192 153.176 505.399 154.968 503.192 154.968 Z " fill="rgb(116,208,241)"/><path d=" M 605.475 156.247 L 605.475 156.247 Q 582.942 156.247 571.276 144.581 L 571.276 144.581 L 571.276 144.581 Q 559.609 132.914 559.609 110.221 L 559.609 110.221 L 559.609 46.302 C 559.609 44.094 561.402 42.302 563.609 42.302 L 571.91 42.302 C 574.118 42.302 575.91 44.094 575.91 46.302 L 575.91 111.34 L 575.91 111.34 Q 575.91 126.842 583.341 134.832 L 583.341 134.832 L 583.341 134.832 Q 590.772 142.823 605.475 142.823 L 605.475 142.823 L 605.475 142.823 Q 620.018 142.823 627.529 134.832 L 627.529 134.832 L 627.529 134.832 Q 635.04 126.842 635.04 111.34 L 635.04 111.34 L 635.04 46.302 C 635.04 44.094 636.832 42.302 639.04 42.302 L 647.341 42.302 C 649.548 42.302 651.341 44.094 651.341 46.302 L 651.341 110.221 L 651.341 110.221 Q 651.341 132.755 639.595 144.501 L 639.595 144.501 L 639.595 144.501 Q 627.848 156.247 605.475 156.247 L 605.475 156.247 Z " fill="rgb(116,208,241)"/><path d=" M 865.162 154.968 L 799.969 154.968 C 797.761 154.968 795.969 153.176 795.969 150.968 L 795.969 46.302 C 795.969 44.094 797.761 42.302 799.969 42.302 L 865.162 42.302 C 867.37 42.302 869.162 44.094 869.162 46.302 L 869.162 51.566 C 869.162 53.774 867.37 55.566 865.162 55.566 L 816.11 55.566 C 813.902 55.566 812.11 57.359 812.11 59.566 L 812.11 87.044 C 812.11 89.252 813.902 91.044 816.11 91.044 L 861.966 91.044 C 864.174 91.044 865.966 92.836 865.966 95.044 L 865.966 100.468 C 865.966 102.676 864.174 104.468 861.966 104.468 L 816.11 104.468 C 813.902 104.468 812.11 106.261 812.11 108.468 L 812.11 137.704 C 812.11 139.912 813.902 141.704 816.11 141.704 L 865.162 141.704 C 867.37 141.704 869.162 143.496 869.162 145.704 L 869.162 150.968 C 869.162 153.176 867.37 154.968 865.162 154.968 Z " fill="rgb(116,208,241)"/><path d=" M 676.75 150.968 L 676.75 147.274 L 676.75 46.302 C 676.75 44.094 678.543 42.302 680.75 42.302 L 716.224 42.302 L 716.224 42.302 Q 743.551 42.302 758.573 57.005 L 758.573 57.005 L 758.573 57.005 Q 773.595 71.707 773.595 98.555 L 773.595 98.555 L 773.595 98.555 Q 773.595 125.403 758.573 140.186 L 758.573 140.186 L 758.573 140.186 Q 743.551 154.968 716.224 154.968 L 716.224 154.968 L 680.75 154.968 C 678.543 154.968 676.75 153.176 676.75 150.968 Z  M 676.753 51.274 C 703.251 51.316 724.75 72.808 724.75 99.274 C 724.75 125.741 703.249 147.234 676.75 147.274 L 676.75 147.274 L 676.753 51.274 Z " fill-rule="evenodd" fill="rgb(116,208,241)"/><path d=" M 676.751 124.975 L 676.752 136.952 C 696.618 136.95 712.747 120.82 712.747 100.952 C 712.747 81.085 696.618 64.954 676.75 64.952 L 676.751 124.461 L 676.836 76.93 C 690.045 76.988 700.75 87.73 700.75 100.952 C 700.75 114.203 689.999 124.962 676.751 124.975 Z " fill-rule="evenodd" fill="rgb(116,208,241)"/><path d=" M 676.793 88.952 C 683.391 88.982 688.739 94.347 688.739 100.952 C 688.739 107.571 683.368 112.946 676.75 112.952 L 676.793 88.952 Z " fill="rgb(116,208,241)"/></g></g></g></svg>