<?xml version="1.0" encoding="UTF-8"?>
<svg id="white" xmlns="http://www.w3.org/2000/svg" viewBox="0 0 1000 1000">
  <defs>
    <style>
      .cls-1 {
        fill: #61adca;
      }
    </style>
  </defs>
  <path class="cls-1" d="M1000,500C1000,224.3,775.7,0,500,0S0,224.3,0,500s224.3,500,500,500,500-224.3,500-500Zm-869.82,34.24L12.58,448.8l132.82-59.13,.35,.61c-10.77,34.69-16.58,71.54-16.58,109.72,0,11.32,.59,22.51,1.59,33.57l-.6,.66ZM779.07,254.93h145.35l-72.7,125.91-.78-.35c-15.79-46.25-40.46-88.39-72-124.41l.12-1.15Zm89.8,288.57l97.17,107.91-142.06,30.19-.31-.95c23.16-41.33,38.6-87.5,44.44-136.6l.76-.55ZM148.29,380.8l-72.67-125.87H220.9l.12,1.18c-31.52,36.01-56.17,78.12-71.96,124.34l-.78,.35Zm569.19,119.2c0,119.92-97.56,217.48-217.48,217.48s-217.48-97.56-217.48-217.48,97.56-217.48,217.48-217.48,217.48,97.56,217.48,217.48Zm-145.54,363.75l.69,.5-72.61,125.75-72.61-125.77,.66-.48c23.28,4.6,47.32,7.06,71.93,7.06s48.65-2.47,71.93-7.06Zm9.81-1.44l.46-.79c47.93-10.89,92.33-31.07,131.25-58.58l1.03,.22-15.19,144.55-117.54-85.4Zm140.28-64.63l.1-.94c38.6-28.97,71.35-65.3,96.24-106.87l.96-.2,44.92,138.24-142.21-30.23Zm104.11-109.46l140.88-29.95c-21.06,61.98-54.16,118.45-96.47,166.64l-44.41-136.69Zm43.1-154.69c1-11.05,1.59-22.23,1.59-33.54,0-38.17-5.81-75-16.57-109.68l.36-.61,132.78,59.12-117.54,85.4-.62-.69Zm-11.14-149.87l71.96-124.63c31.15,55.37,51.91,117.32,59.63,183.21l-131.58-58.58Zm-86.39-135.67c-32.65-35.17-72.01-63.99-116.04-84.44l-.3-.93,132.66-59.06-15.18,144.43h-1.13Zm-118.5-91.99l-44.51-136.98c64.24,14.51,123.76,41.58,175.84,78.5l-131.34,58.47Zm-6.36,2.83l-.81,.36c-43.31-18.63-90.86-29.18-140.76-29.88l-.58-.65,97.26-108.01,44.9,138.18Zm-152.06-29.52c-49.93,.7-97.5,11.25-140.84,29.9l-.78-.35L398.07,20.63l97.28,108.04-.58,.65Zm-147.98,26.71l-131.35-58.48c52.08-36.94,111.62-64.01,175.87-78.52l-44.52,137Zm-2.15,6.63l-.29,.9c-44.03,20.45-83.4,49.27-116.04,84.44h-1.16l-15.18-144.41,132.68,59.07Zm-202.72,220.98L10.33,442.22c7.73-65.89,28.49-127.84,59.64-183.21l71.95,124.62Zm-10.03,160.41c5.84,49.1,21.28,95.28,44.44,136.6l-.32,.98-142.04-30.19,97.18-107.93,.74,.54Zm41.97,144.21l-44.41,136.66c-42.3-48.18-75.39-104.63-96.46-166.6l140.86,29.94Zm6.81,1.45l.99,.21c24.88,41.54,57.61,77.85,96.19,106.81l.1,.94-142.17,30.22,44.9-138.18Zm105.85,113.22c38.94,27.52,83.36,47.71,131.32,58.61l.44,.77-117.59,85.43-15.2-144.59,1.03-.22Zm135.24,65.41l71.97,124.66c-66.83-.84-130.5-15.02-188.45-40.03l116.48-84.63Zm156.49,.02l116.46,84.61c-57.95,25.01-121.6,39.19-188.42,40.03l71.96-124.64Zm127.98,79.46l15.05-143.19,140.61,29.89c-43.72,47.26-96.54,85.97-155.66,113.31Zm264.64-301.38l-96.37-107.03,116.47-84.62c1.36,14.9,2.09,29.98,2.09,45.22,0,50.96-7.77,100.15-22.19,146.43Zm-47.23-398.43h-143.85l15.03-142.98c51.71,38.7,95.58,87.32,128.82,142.98ZM596.42,16.42l-96.41,107.07L403.61,16.42c31.19-6.21,63.41-9.49,96.39-9.49s65.23,3.28,96.42,9.49ZM205.15,105.03l15.03,142.96H76.36c33.23-55.66,77.09-104.27,128.79-142.96ZM9.02,454.78l116.49,84.64-96.38,107.04c-14.43-46.29-22.2-95.48-22.2-146.46,0-15.25,.73-30.32,2.09-45.22Zm129.05,379.69l140.6-29.89,15.05,143.2c-59.12-27.34-111.94-66.05-155.66-113.32Z"/>
</svg>
