<?xml version="1.0" encoding="UTF-8" standalone="no"?><!-- Generator: Gravit.io --><svg xmlns="http://www.w3.org/2000/svg" xmlns:xlink="http://www.w3.org/1999/xlink" style="isolation:isolate" viewBox="0 0 869.162 257.2" width="869.162pt" height="257.2pt"><defs><clipPath id="_clipPath_NXyHOXI5OyRfkI3JaXhjBzK5hff6PNYO"><rect width="869.162" height="257.2"/></clipPath></defs><g clip-path="url(#_clipPath_NXyHOXI5OyRfkI3JaXhjBzK5hff6PNYO)"><g><g><g><path d=" M 225.441 126.809 L 200.932 126.809 C 198.002 126.809 195.309 124.75 194.597 121.978 L 180.422 68.922 L 160.308 169.808 C 159.761 172.855 157.067 175.043 153.973 174.955 C 151.043 174.955 148.351 172.896 147.638 169.966 L 131.246 103.527 L 121.506 123.245 C 120.318 125.463 118.101 126.967 115.646 126.967 L 99.171 126.967 L 99.171 126.967 L 99.172 126.971 L 99.172 126.971 L 87.042 126.971 Q 83.042 126.971 79.042 126.971 L 29.989 126.971 C 27.782 126.971 25.28 128.617 24.406 130.644 L 15.587 151.104 C 14.713 153.132 12.211 154.778 10.004 154.778 L 5.383 154.778 C 0.968 154.778 -1.158 151.503 0.638 147.47 L 45.936 45.765 C 46.835 43.749 49.356 42.111 51.564 42.111 L 57.307 42.111 C 59.515 42.111 62.038 43.748 62.937 45.764 L 91.746 110.327 C 92.645 112.343 95.168 113.98 97.376 113.98 L 111.528 113.98 L 127.287 81.83 C 128.316 79.613 130.692 78.108 133.147 78.108 L 133.859 78.108 C 136.472 78.425 138.848 80.325 139.482 82.938 L 153.181 138.766 L 173.374 39.147 C 173.929 36.217 176.463 34 179.551 34 L 179.868 34 C 182.639 34 185.332 36.059 186.044 38.831 L 205.921 113.822 L 225.441 113.822 C 227.649 113.822 229.441 112.03 229.441 109.822 L 229.441 63.302 C 229.441 61.094 231.234 59.302 233.441 59.302 L 276.106 59.302 L 276.106 59.302 Q 294.005 59.302 303.913 68.092 L 303.913 68.092 L 303.913 68.092 Q 313.821 76.881 313.821 93.022 L 313.821 93.022 L 313.821 93.022 Q 313.821 109.003 303.913 117.952 L 303.913 117.952 L 303.913 117.952 Q 294.005 126.902 276.106 126.902 L 276.106 126.902 L 249.902 126.902 C 247.694 126.902 245.902 128.694 245.902 130.902 L 245.902 167.968 C 245.902 170.176 244.109 171.968 241.902 171.968 L 233.441 171.968 C 231.234 171.968 229.441 170.176 229.441 167.968 L 229.441 167.968 L 229.441 130.809 C 229.441 128.601 227.649 126.809 225.441 126.809 Z  M 51.428 67.836 L 34.75 106.52 C 33.002 110.574 35.167 113.866 39.583 113.866 L 69.448 113.866 C 73.864 113.866 76.037 110.571 74.3 106.512 L 57.744 67.844 C 56.006 63.785 53.176 63.781 51.428 67.836 L 51.428 67.836 L 51.428 67.836 Z  M 249.902 113.637 L 274.348 113.637 L 274.348 113.637 Q 298 113.637 298 93.022 L 298 93.022 L 298 93.022 Q 298 72.566 274.348 72.566 L 274.348 72.566 L 249.902 72.566 C 247.694 72.566 245.902 74.359 245.902 76.566 L 245.902 109.637 C 245.902 111.845 247.694 113.637 249.902 113.637 L 249.902 113.637 Z " fill-rule="evenodd" fill="rgb(116,208,241)"/><path d=" M 400.753 171.968 L 337.638 171.968 C 335.43 171.968 333.638 170.176 333.638 167.968 L 333.638 63.302 C 333.638 61.094 335.43 59.302 337.638 59.302 L 346.098 59.302 C 348.306 59.302 350.098 61.094 350.098 63.302 L 350.098 154.225 C 350.098 156.432 351.89 158.225 354.098 158.225 L 400.753 158.225 C 402.961 158.225 404.753 160.017 404.753 162.225 L 404.753 167.968 C 404.753 170.176 402.961 171.968 400.753 171.968 Z " fill="rgb(116,208,241)"/><path d=" M 433.514 171.968 L 425.054 171.968 C 422.846 171.968 421.054 170.176 421.054 167.968 L 421.054 63.302 C 421.054 61.094 422.846 59.302 425.054 59.302 L 433.514 59.302 C 435.722 59.302 437.514 61.094 437.514 63.302 L 437.514 167.968 C 437.514 170.176 435.722 171.968 433.514 171.968 Z " fill="rgb(116,208,241)"/><path d=" M 503.192 171.968 L 494.571 171.968 C 492.364 171.968 490.571 170.176 490.571 167.968 L 490.571 73.046 L 456.537 73.046 C 454.329 73.046 452.537 71.253 452.537 69.046 L 452.537 63.302 C 452.537 61.094 454.329 59.302 456.537 59.302 L 541.386 59.302 C 543.594 59.302 545.386 61.094 545.386 63.302 L 545.386 69.046 C 545.386 71.253 543.594 73.046 541.386 73.046 L 507.192 73.046 L 507.192 167.968 C 507.192 170.176 505.399 171.968 503.192 171.968 Z " fill="rgb(116,208,241)"/><path d=" M 605.475 173.247 L 605.475 173.247 Q 582.942 173.247 571.276 161.581 L 571.276 161.581 L 571.276 161.581 Q 559.609 149.914 559.609 127.221 L 559.609 127.221 L 559.609 63.302 C 559.609 61.094 561.402 59.302 563.609 59.302 L 571.91 59.302 C 574.118 59.302 575.91 61.094 575.91 63.302 L 575.91 128.34 L 575.91 128.34 Q 575.91 143.842 583.341 151.832 L 583.341 151.832 L 583.341 151.832 Q 590.772 159.823 605.475 159.823 L 605.475 159.823 L 605.475 159.823 Q 620.018 159.823 627.529 151.832 L 627.529 151.832 L 627.529 151.832 Q 635.04 143.842 635.04 128.34 L 635.04 128.34 L 635.04 63.302 C 635.04 61.094 636.832 59.302 639.04 59.302 L 647.341 59.302 C 649.548 59.302 651.341 61.094 651.341 63.302 L 651.341 127.221 L 651.341 127.221 Q 651.341 149.755 639.595 161.501 L 639.595 161.501 L 639.595 161.501 Q 627.848 173.247 605.475 173.247 L 605.475 173.247 Z " fill="rgb(116,208,241)"/><path d="" fill-rule="evenodd" fill="rgb(116,208,241)"/><path d=" M 865.162 171.968 L 799.969 171.968 C 797.761 171.968 795.969 170.176 795.969 167.968 L 795.969 63.302 C 795.969 61.094 797.761 59.302 799.969 59.302 L 865.162 59.302 C 867.37 59.302 869.162 61.094 869.162 63.302 L 869.162 68.566 C 869.162 70.774 867.37 72.566 865.162 72.566 L 816.11 72.566 C 813.902 72.566 812.11 74.359 812.11 76.566 L 812.11 104.044 C 812.11 106.252 813.902 108.044 816.11 108.044 L 861.966 108.044 C 864.174 108.044 865.966 109.836 865.966 112.044 L 865.966 117.468 C 865.966 119.676 864.174 121.468 861.966 121.468 L 816.11 121.468 C 813.902 121.468 812.11 123.261 812.11 125.468 L 812.11 154.704 C 812.11 156.912 813.902 158.704 816.11 158.704 L 865.162 158.704 C 867.37 158.704 869.162 160.496 869.162 162.704 L 869.162 167.968 C 869.162 170.176 867.37 171.968 865.162 171.968 Z " fill="rgb(116,208,241)"/><path d=" M 676.75 167.968 L 676.75 164.274 L 676.75 63.302 C 676.75 61.094 678.543 59.302 680.75 59.302 L 716.224 59.302 L 716.224 59.302 Q 743.551 59.302 758.573 74.005 L 758.573 74.005 L 758.573 74.005 Q 773.595 88.707 773.595 115.555 L 773.595 115.555 L 773.595 115.555 Q 773.595 142.403 758.573 157.186 L 758.573 157.186 L 758.573 157.186 Q 743.551 171.968 716.224 171.968 L 716.224 171.968 L 680.75 171.968 C 678.543 171.968 676.75 170.176 676.75 167.968 Z  M 676.753 68.274 C 703.251 68.316 724.75 89.808 724.75 116.274 C 724.75 142.741 703.249 164.234 676.75 164.274 L 676.75 164.274 L 676.753 68.274 Z " fill-rule="evenodd" fill="rgb(116,208,241)"/><path d=" M 676.751 141.975 L 676.752 153.952 C 696.618 153.95 712.747 137.82 712.747 117.952 C 712.747 98.085 696.618 81.954 676.75 81.952 L 676.751 141.461 L 676.836 93.93 C 690.045 93.988 700.75 104.73 700.75 117.952 C 700.75 131.203 689.999 141.962 676.751 141.975 Z " fill-rule="evenodd" fill="rgb(116,208,241)"/><path d=" M 676.793 105.952 C 683.391 105.982 688.739 111.347 688.739 117.952 C 688.739 124.571 683.368 129.946 676.75 129.952 L 676.793 105.952 Z " fill="rgb(116,208,241)"/></g></g><path d=" M 714.443 233.833 L 714.443 233.833 L 714.443 233.833 Q 714.443 238.403 711.139 241.005 L 711.139 241.005 L 711.139 241.005 Q 707.834 243.606 702.021 243.606 L 702.021 243.606 L 702.021 243.606 Q 696.209 243.606 692.506 241.802 L 692.506 241.802 L 692.506 236.505 L 692.506 236.505 Q 694.85 237.606 697.486 238.239 L 697.486 238.239 L 697.486 238.239 Q 700.123 238.872 702.396 238.872 L 702.396 238.872 L 702.396 238.872 Q 705.725 238.872 707.307 237.606 L 707.307 237.606 L 707.307 237.606 Q 708.889 236.341 708.889 234.208 L 708.889 234.208 L 708.889 234.208 Q 708.889 232.286 707.436 230.95 L 707.436 230.95 L 707.436 230.95 Q 705.982 229.614 701.436 227.786 L 701.436 227.786 L 701.436 227.786 Q 696.748 225.888 694.826 223.45 L 694.826 223.45 L 694.826 223.45 Q 692.904 221.013 692.904 217.591 L 692.904 217.591 L 692.904 217.591 Q 692.904 213.302 695.951 210.841 L 695.951 210.841 L 695.951 210.841 Q 698.998 208.38 704.131 208.38 L 704.131 208.38 L 704.131 208.38 Q 709.053 208.38 713.928 210.536 L 713.928 210.536 L 712.146 215.106 L 712.146 215.106 Q 707.576 213.184 703.99 213.184 L 703.99 213.184 L 703.99 213.184 Q 701.271 213.184 699.865 214.368 L 699.865 214.368 L 699.865 214.368 Q 698.459 215.552 698.459 217.497 L 698.459 217.497 L 698.459 217.497 Q 698.459 218.833 699.021 219.782 L 699.021 219.782 L 699.021 219.782 Q 699.584 220.731 700.873 221.575 L 700.873 221.575 L 700.873 221.575 Q 702.162 222.419 705.514 223.802 L 705.514 223.802 L 705.514 223.802 Q 709.287 225.372 711.045 226.731 L 711.045 226.731 L 711.045 226.731 Q 712.803 228.091 713.623 229.802 L 713.623 229.802 L 713.623 229.802 Q 714.443 231.513 714.443 233.833 Z  M 732.912 213.677 L 732.912 243.138 L 727.311 243.138 L 727.311 213.677 L 717.232 213.677 L 717.232 208.872 L 742.99 208.872 L 742.99 213.677 L 732.912 213.677 L 732.912 213.677 Z  M 769.498 208.872 L 775.1 208.872 L 775.1 231.044 L 775.1 231.044 Q 775.1 234.841 773.471 237.688 L 773.471 237.688 L 773.471 237.688 Q 771.842 240.536 768.76 242.071 L 768.76 242.071 L 768.76 242.071 Q 765.678 243.606 761.389 243.606 L 761.389 243.606 L 761.389 243.606 Q 755.014 243.606 751.475 240.231 L 751.475 240.231 L 751.475 240.231 Q 747.936 236.856 747.936 230.95 L 747.936 230.95 L 747.936 208.872 L 753.561 208.872 L 753.561 230.552 L 753.561 230.552 Q 753.561 234.794 755.529 236.809 L 755.529 236.809 L 755.529 236.809 Q 757.498 238.825 761.576 238.825 L 761.576 238.825 L 761.576 238.825 Q 769.498 238.825 769.498 230.505 L 769.498 230.505 L 769.498 208.872 L 769.498 208.872 Z  M 811.732 225.677 L 811.732 225.677 L 811.732 225.677 Q 811.732 234.161 807.021 238.649 L 807.021 238.649 L 807.021 238.649 Q 802.311 243.138 793.451 243.138 L 793.451 243.138 L 783.865 243.138 L 783.865 208.872 L 794.459 208.872 L 794.459 208.872 Q 802.639 208.872 807.186 213.278 L 807.186 213.278 L 807.186 213.278 Q 811.732 217.684 811.732 225.677 Z  M 805.826 225.864 L 805.826 225.864 L 805.826 225.864 Q 805.826 213.559 794.318 213.559 L 794.318 213.559 L 789.467 213.559 L 789.467 238.427 L 793.451 238.427 L 793.451 238.427 Q 805.826 238.427 805.826 225.864 Z  M 824.693 243.138 L 819.092 243.138 L 819.092 208.872 L 824.693 208.872 L 824.693 243.138 L 824.693 243.138 Z  M 864.162 225.958 L 864.162 225.958 L 864.162 225.958 Q 864.162 234.325 859.978 238.966 L 859.978 238.966 L 859.978 238.966 Q 855.795 243.606 848.131 243.606 L 848.131 243.606 L 848.131 243.606 Q 840.373 243.606 836.213 239.001 L 836.213 239.001 L 836.213 239.001 Q 832.053 234.395 832.053 225.911 L 832.053 225.911 L 832.053 225.911 Q 832.053 217.427 836.236 212.88 L 836.236 212.88 L 836.236 212.88 Q 840.42 208.333 848.178 208.333 L 848.178 208.333 L 848.178 208.333 Q 855.818 208.333 859.99 212.95 L 859.99 212.95 L 859.99 212.95 Q 864.162 217.567 864.162 225.958 Z  M 838.006 225.958 L 838.006 225.958 L 838.006 225.958 Q 838.006 232.286 840.561 235.555 L 840.561 235.555 L 840.561 235.555 Q 843.115 238.825 848.131 238.825 L 848.131 238.825 L 848.131 238.825 Q 853.123 238.825 855.666 235.591 L 855.666 235.591 L 855.666 235.591 Q 858.209 232.356 858.209 225.958 L 858.209 225.958 L 858.209 225.958 Q 858.209 219.653 855.689 216.395 L 855.689 216.395 L 855.689 216.395 Q 853.17 213.138 848.178 213.138 L 848.178 213.138 L 848.178 213.138 Q 843.139 213.138 840.572 216.395 L 840.572 216.395 L 840.572 216.395 Q 838.006 219.653 838.006 225.958 Z " fill="rgb(210,46,46)"/></g></g></svg>