<?xml version="1.0" encoding="UTF-8" standalone="no"?><!-- Generator: Gravit.io --><svg xmlns="http://www.w3.org/2000/svg" xmlns:xlink="http://www.w3.org/1999/xlink" style="isolation:isolate" viewBox="0 0 64 64" width="64pt" height="64pt"><defs><clipPath id="_clipPath_3ehk5LAOx3EN0PU0IyVOLAzEOxiSrlkw"><rect width="64" height="64"/></clipPath></defs><g clip-path="url(#_clipPath_3ehk5LAOx3EN0PU0IyVOLAzEOxiSrlkw)"><circle vector-effect="non-scaling-stroke" cx="32" cy="32" r="32" fill="rgb(116,208,241)"/><path d=" M 29.364 50.841 C 28.581 50.841 27.861 50.291 27.671 49.507 L 23.288 31.746 L 20.685 37.017 C 20.367 37.61 19.774 38.012 19.118 38.012 L -2.264 38.012 C -3.217 38.012 -4 37.229 -4 36.276 C -4 35.323 -3.217 34.54 -2.264 34.54 L 18.017 34.54 L 22.23 25.945 C 22.505 25.352 23.14 24.95 23.797 24.95 L 23.987 24.95 C 24.686 25.035 25.321 25.543 25.49 26.241 L 29.153 41.166 L 34.551 14.534 C 34.699 13.751 35.377 13.158 36.202 13.158 L 36.287 13.158 C 37.028 13.158 37.748 13.709 37.938 14.45 L 43.252 34.498 L 66.264 34.498 C 67.217 34.498 68 35.281 68 36.234 C 68 37.186 67.217 37.97 66.264 37.97 L 41.918 37.97 C 41.135 37.97 40.415 37.419 40.225 36.678 L 36.435 22.494 L 31.058 49.465 C 30.912 50.28 30.192 50.865 29.364 50.841 Z " fill="rgb(255,255,255)"/></g></svg>